<?xml version="1.0" encoding="UTF-8"?>
<!-- This file is generated by npm run build:icons -->
<svg xmlns="http://www.w3.org/2000/svg" xmlns:xlink="http://www.w3.org/1999/xlink" width="0" height="0">
<defs>
<symbol viewBox="0 0 24 24" fill="none" id="action">
<path fill-rule="evenodd" clip-rule="evenodd" d="M11.3143 3.20969C10.9369 3.52274 10.8932 4.07258 11.2167 4.4378L17.9146 12L11.2167 19.5622C10.8932 19.9274 10.9369 20.4773 11.3143 20.7904C11.6917 21.1033 12.2599 21.0611 12.5833 20.6958L19.7833 12.5668C20.0722 12.2406 20.0722 11.7594 19.7833 11.4332L12.5833 3.30417C12.2599 2.93895 11.6917 2.89665 11.3143 3.20969Z" fill="currentColor"></path>
<path d="M6 3.871C6 3.50652 6.23452 3.1806 6.58775 3.05415C6.94098 2.92768 7.33823 3.02746 7.58333 3.30419L14.7833 11.4332C15.0722 11.7593 15.0722 12.2407 14.7833 12.5668L7.58333 20.6957C7.33823 20.9725 6.94098 21.0723 6.58775 20.9459C6.23452 20.8194 6 20.4934 6 20.1289V3.871Z" fill="currentColor"></path>
</symbol>
<symbol viewBox="0 0 24 24" fill="none" id="add">
<path d="M10 22V14H2C1.46957 14 0.96086 13.7893 0.585787 13.4142C0.210714 13.0391 0 12.5304 0 12C0 11.4696 0.210714 10.9609 0.585787 10.5858C0.96086 10.2107 1.46957 10 2 10H10V2C10 1.46957 10.2107 0.96086 10.5858 0.585787C10.9609 0.210714 11.4696 0 12 0C12.5304 0 13.0391 0.210714 13.4142 0.585787C13.7893 0.96086 14 1.46957 14 2V10H22C22.5304 10 23.0391 10.2107 23.4142 10.5858C23.7893 10.9609 24 11.4696 24 12C24 12.5304 23.7893 13.0391 23.4142 13.4142C23.0391 13.7893 22.5304 14 22 14H14V22C14 22.5304 13.7893 23.0391 13.4142 23.4142C13.0391 23.7893 12.5304 24 12 24C11.4696 24 10.9609 23.7893 10.5858 23.4142C10.2107 23.0391 10 22.5304 10 22Z" fill="currentColor"></path>
</symbol>
<symbol viewBox="0 0 24 24" fill="none" id="back">
<g clip-path="url(#clip0_161_33564)">
<path d="M7 12C7.00129 11.7447 7.05939 11.4929 7.17009 11.2629C7.28078 11.0328 7.4413 10.8303 7.64 10.67L12.74 6.46001C13.047 6.214 13.417 6.05919 13.8077 6.01323C14.1985 5.96726 14.5943 6.03198 14.95 6.20001C15.2592 6.33629 15.5226 6.55868 15.7088 6.84063C15.895 7.12257 15.9961 7.45215 16 7.79001L16 16.21C15.9961 16.5479 15.895 16.8774 15.7088 17.1594C15.5226 17.4413 15.2592 17.6637 14.95 17.8C14.5943 17.968 14.1985 18.0328 13.8077 17.9868C13.417 17.9408 13.047 17.786 12.74 17.54L7.64 13.33C7.4413 13.1697 7.28078 12.9672 7.17009 12.7371C7.05939 12.5071 7.00129 12.2553 7 12Z" fill="currentColor"></path>
</g>
<defs>
<clipPath id="clip0_161_33564">
<rect width="24" height="24" fill="white"></rect>
</clipPath>
</defs>
</symbol>
<symbol viewBox="0 0 24 24" fill="none" id="comments">
<g clip-path="url(#clip0_150_30937)">
<path fill-rule="evenodd" clip-rule="evenodd" d="M10 4H14C17.3137 4 20 6.68629 20 10V14C20 17.3137 17.3137 20 14 20H4V10C4 6.68629 6.68629 4 10 4Z" stroke="currentColor" stroke-width="1.5" stroke-linecap="round"></path>
<path d="M9 14H12" stroke="currentColor" stroke-width="1.5" stroke-linecap="round"></path>
<path d="M9 10H15" stroke="currentColor" stroke-width="1.5" stroke-linecap="round"></path>
</g>
<defs>
<clipPath id="clip0_150_30937">
<rect width="24" height="24" fill="white"></rect>
</clipPath>
</defs>
</symbol>
<symbol viewBox="0 0 24 24" fill="none" id="correct">
<path d="M15.9566 5.96845L10.0935 13.0006L8.041 10.5398C7.8491 10.3095 7.61372 10.1193 7.3483 9.97994C7.08288 9.84062 6.79261 9.75495 6.49408 9.72781C6.19555 9.70067 5.8946 9.73259 5.6084 9.82176C5.32221 9.91093 5.05638 10.0556 4.8261 10.2475C4.59581 10.4394 4.40558 10.6748 4.26627 10.9402C4.12695 11.2056 4.04128 11.4959 4.01414 11.7944C3.987 12.093 4.01892 12.3939 4.10809 12.6801C4.19726 12.9663 4.34193 13.2321 4.53383 13.4624L8.33994 18.0315C8.55386 18.2889 8.82181 18.4961 9.12477 18.6384C9.42773 18.7807 9.75829 18.8545 10.093 18.8548C10.4277 18.855 10.7584 18.7815 11.0615 18.6396C11.3647 18.4978 11.6329 18.2909 11.8471 18.0338L19.4638 8.89554C19.6574 8.66543 19.8036 8.39936 19.8941 8.1126C19.9846 7.82583 20.0176 7.52402 19.9912 7.22447C19.9648 6.92493 19.8795 6.63354 19.7402 6.36704C19.6009 6.10054 19.4104 5.86417 19.1795 5.67149C18.9486 5.47881 18.682 5.33361 18.3949 5.24423C18.1078 5.15484 17.8058 5.12304 17.5064 5.15063C17.207 5.17822 16.9159 5.26466 16.65 5.405C16.384 5.54535 16.1484 5.73682 15.9566 5.96845Z" fill="currentColor"></path>
</symbol>
<symbol viewBox="0 0 24 24" fill="none" id="delete">
<path d="M16 5V6H14.4V5H9.6V6H8V5C8 4.46957 8.16857 3.96086 8.46863 3.58579C8.76869 3.21071 9.17565 3 9.6 3H14.4C14.8243 3 15.2313 3.21071 15.5314 3.58579C15.8314 3.96086 16 4.46957 16 5Z" fill="currentColor"></path>
<path d="M19.1111 7H4.88889C4.65314 7 4.42705 7.09219 4.26035 7.25628C4.09365 7.42038 4 7.64294 4 7.875C4 8.10706 4.09365 8.32962 4.26035 8.49372C4.42705 8.65781 4.65314 8.75 4.88889 8.75H5.84L6.61333 19.3725C6.64488 19.8151 6.84602 20.2293 7.17606 20.5315C7.5061 20.8336 7.9404 21.0011 8.39111 21H15.6267C16.0774 21.0011 16.5117 20.8336 16.8417 20.5315C17.1718 20.2293 17.3729 19.8151 17.4044 19.3725L18.16 8.75H19.1111C19.3469 8.75 19.573 8.65781 19.7397 8.49372C19.9064 8.32962 20 8.10706 20 7.875C20 7.64294 19.9064 7.42038 19.7397 7.25628C19.573 7.09219 19.3469 7 19.1111 7ZM12.8889 16.625C12.8889 16.8571 12.7952 17.0796 12.6285 17.2437C12.4618 17.4078 12.2357 17.5 12 17.5C11.7643 17.5 11.5382 17.4078 11.3715 17.2437C11.2048 17.0796 11.1111 16.8571 11.1111 16.625V11.375C11.1111 11.1429 11.2048 10.9204 11.3715 10.7563C11.5382 10.5922 11.7643 10.5 12 10.5C12.2357 10.5 12.4618 10.5922 12.6285 10.7563C12.7952 10.9204 12.8889 11.1429 12.8889 11.375V16.625Z" fill="currentColor"></path>
</symbol>
<symbol viewBox="0 0 24 24" fill="none" id="doubleArrow">
<path fill-rule="evenodd" clip-rule="evenodd" d="M12.6308 6.0728L7.07399 12L12.6308 17.9272C13.2897 18.6301 13.2897 19.7699 12.6308 20.4729C11.9718 21.1757 10.9033 21.1757 10.2443 20.4729L3.49426 13.2729C2.83525 12.5699 2.83525 11.4301 3.49426 10.7272L10.2443 3.52721C10.9033 2.82426 11.9718 2.82426 12.6308 3.52721C13.2897 4.23016 13.2897 5.36985 12.6308 6.0728ZM14.949 12L20.5058 17.9272C21.1647 18.6301 21.1647 19.7699 20.5058 20.4729C19.8468 21.1757 18.7783 21.1757 18.1192 20.4729L11.3692 13.2729C10.7103 12.5699 10.7103 11.4301 11.3692 10.7272L18.1192 3.52721C18.7783 2.82426 19.8468 2.82426 20.5058 3.52721C21.1647 4.23016 21.1647 5.36985 20.5058 6.0728L14.949 12Z" fill="currentColor"></path>
</symbol>
<symbol viewBox="0 0 24 24" fill="none" id="edit">
<path fill-rule="evenodd" clip-rule="evenodd" d="M16.0641 4C15.0202 4 14.0191 4.41468 13.281 5.1528L8.63904 9.79474C6.50709 11.9267 4.99464 14.598 4.26339 17.523L4.03909 18.4202C3.80646 19.3507 4.64933 20.1935 5.57986 19.9609L6.47704 19.7366C9.40204 19.0054 12.0733 17.4929 14.2052 15.361L18.8472 10.719C19.5853 9.98091 20 8.97979 20 7.93593C20 5.76217 18.2379 4 16.0641 4ZM14.73 9.26995C15.4406 9.9805 16.2644 10.2832 16.8754 10.1768L17.5902 9.46202C17.9949 9.05728 18.2223 8.50833 18.2223 7.93593C18.2223 6.74397 17.256 5.77769 16.0641 5.77769C15.4916 5.77769 14.9428 6.00508 14.538 6.40983L13.8232 7.12464C13.7168 7.73564 14.0195 8.55938 14.73 9.26995Z" fill="currentColor"></path>
</symbol>
<symbol viewBox="0 0 24 24" fill="none" id="email">
<path d="M21 9V18.1164C21 18.616 20.8104 19.0951 20.4728 19.4483C20.1352 19.8016 19.6774 20 19.2 20H4.8C4.32261 20 3.86477 19.8016 3.52721 19.4483C3.18964 19.0951 3 18.616 3 18.1164V9.34846L4.8 10.375L11.568 14.2363C11.7007 14.3112 11.8492 14.3501 12 14.3493C12.1585 14.3476 12.3137 14.3021 12.45 14.2175L19.2 10.1019L21 9Z" fill="currentColor"></path>
<path d="M21 6.78344L19.2 7.83567L12 12L4.8 8.12102L3 7.14013V6.78344C3 6.31044 3.18964 5.85682 3.52721 5.52236C3.86477 5.1879 4.32261 5 4.8 5H19.2C19.6774 5 20.1352 5.1879 20.4728 5.52236C20.8104 5.85682 21 6.31044 21 6.78344Z" fill="currentColor"></path>
</symbol>
<symbol viewBox="0 0 24 24" fill="none" id="error">
<path d="M12 2C6.48 2 2 6.48 2 12C2 17.52 6.48 22 12 22C17.52 22 22 17.52 22 12C22 6.48 17.52 2 12 2ZM13 16C13 16.5523 12.5523 17 12 17C11.4477 17 11 16.5523 11 16C11 15.4477 11.4477 15 12 15C12.5523 15 13 15.4477 13 16ZM13 12C13 12.5523 12.5523 13 12 13C11.4477 13 11 12.5523 11 12V8C11 7.44772 11.4477 7 12 7C12.5523 7 13 7.44772 13 8V12Z" fill="currentColor"></path>
</symbol>
<symbol viewBox="0 0 24 24" fill="none" id="evaluation">
<path fill-rule="evenodd" clip-rule="evenodd" d="M7 2C4.23858 2 2 4.23858 2 7V17C2 19.7614 4.23858 22 7 22H17C19.7614 22 22 19.7614 22 17V7C22 4.23858 19.7614 2 17 2H7ZM13 8C13 7.44772 12.5523 7 12 7C11.4477 7 11 7.44772 11 8V16C11 16.5523 11.4477 17 12 17C12.5523 17 13 16.5523 13 16V8ZM8 10C8.55228 10 9 10.4477 9 11V16C9 16.5523 8.55229 17 8 17C7.44772 17 7 16.5523 7 16V11C7 10.4477 7.44772 10 8 10ZM16 12C16.5523 12 17 12.4477 17 13V16C17 16.5523 16.5523 17 16 17C15.4477 17 15 16.5523 15 16V13C15 12.4477 15.4477 12 16 12Z" fill="currentColor"></path>
</symbol>
<symbol viewBox="0 0 24 24" fill="none" id="filter">
<path d="M21 7H16" stroke="currentColor" stroke-width="1.5" stroke-miterlimit="10" stroke-linecap="round" stroke-linejoin="round"></path>
<path d="M7 7H3" stroke="currentColor" stroke-width="1.5" stroke-miterlimit="10" stroke-linecap="round" stroke-linejoin="round"></path>
<path d="M10 10C11.6569 10 13 8.65685 13 7C13 5.34315 11.6569 4 10 4C8.34315 4 7 5.34315 7 7C7 8.65685 8.34315 10 10 10Z" stroke="currentColor" stroke-width="1.5" stroke-miterlimit="10" stroke-linecap="round" stroke-linejoin="round"></path>
<path d="M21 17H17" stroke="currentColor" stroke-width="1.5" stroke-miterlimit="10" stroke-linecap="round" stroke-linejoin="round"></path>
<path d="M8 17H3" stroke="currentColor" stroke-width="1.5" stroke-miterlimit="10" stroke-linecap="round" stroke-linejoin="round"></path>
<path d="M14 20C15.6569 20 17 18.6569 17 17C17 15.3431 15.6569 14 14 14C12.3431 14 11 15.3431 11 17C11 18.6569 12.3431 20 14 20Z" stroke="currentColor" stroke-width="1.5" stroke-miterlimit="10" stroke-linecap="round" stroke-linejoin="round"></path>
</symbol>
<symbol viewBox="0 0 24 24" fill="none" id="graph">
<path d="M20.7234 7.13338C20.1896 5.32116 18.68 3.80958 16.87 3.2751C15.4938 2.87424 14.543 2.90765 13.8841 3.40037C13.0917 3.99331 13 5.06227 13 5.82224V7.9017C13 9.95609 13.9341 11 15.7691 11H18.1628C18.9135 11 19.9894 10.9081 20.5816 10.1148C21.0904 9.46339 21.1321 8.51134 20.7234 7.13338Z" fill="currentColor"></path>
<path d="M18.6836 12.9866C18.4424 12.7084 18.0899 12.5507 17.7281 12.5507H14.4073C12.7747 12.5507 11.4482 11.2244 11.4482 9.59206V6.27169C11.4482 5.90997 11.2905 5.55753 11.0122 5.31639C10.7432 5.07524 10.3722 4.96395 10.0197 5.01032C7.83978 5.28856 5.83614 6.48501 4.5282 8.28431C3.21099 10.0929 2.72863 12.3003 3.14606 14.5077C3.74901 17.6982 6.29994 20.2487 9.50021 20.8516C10.0104 20.9536 10.5206 21 11.0308 21C12.7097 21 14.3331 20.4806 15.7152 19.4697C17.5148 18.1619 18.7114 16.1586 18.9897 13.979C19.0361 13.6173 18.9247 13.2556 18.6836 12.9866Z" fill="currentColor"></path>
</symbol>
<symbol viewBox="0 0 24 24" fill="none" id="heart">
<path fill-rule="evenodd" clip-rule="evenodd" d="M12 6.00019C10.2006 3.90317 7.19377 3.2551 4.93923 5.17534C2.68468 7.09558 2.36727 10.3061 4.13778 12.5772C5.60984 14.4654 10.0648 18.4479 11.5249 19.7369C11.6882 19.8811 11.7699 19.9532 11.8652 19.9815C11.9483 20.0062 12.0393 20.0062 12.1225 19.9815C12.2178 19.9532 12.2994 19.8811 12.4628 19.7369C13.9229 18.4479 18.3778 14.4654 19.8499 12.5772C21.6204 10.3061 21.3417 7.07538 19.0484 5.17534C16.7551 3.2753 13.7994 3.90317 12 6.00019Z" fill="currentColor"></path>
</symbol>
<symbol viewBox="0 0 24 24" fill="none" id="heartStroke">
<path d="M11.4308 6.48859C11.5733 6.65464 11.7812 6.75019 12 6.75019C12.2188 6.75019 12.4267 6.65464 12.5692 6.48859C14.1579 4.63708 16.6538 4.16532 18.5699 5.75287C20.5433 7.38787 20.7857 10.1569 19.2584 12.1161C18.5635 13.0074 17.1243 14.437 15.6379 15.8355C14.1842 17.2033 12.7304 18.4999 11.9938 19.1504C11.2573 18.4999 9.80348 17.2033 8.34977 15.8355C6.8634 14.437 5.42418 13.0074 4.72928 12.1161C3.20862 10.1655 3.47304 7.40929 5.42553 5.74631L4.95124 5.18944L5.42554 5.74631C7.29583 4.15334 9.83664 4.63074 11.4308 6.48859Z" stroke="currentColor" stroke-width="1.5" stroke-linecap="round" stroke-linejoin="round"></path>
</symbol>
<symbol viewBox="0 0 24 24" fill="none" id="home">
<path fill-rule="evenodd" clip-rule="evenodd" d="M20.479 7.57827L15.093 3.12502C13.2787 1.62499 10.7213 1.62499 8.90703 3.12502L3.52097 7.57827C2.55059 8.38059 2 9.59705 2 10.8663V17.8109C2 20.066 3.73415 22 6 22H8C9.10457 22 10 21.1046 10 20V16.7478C10 15.4803 10.9521 14.5587 12 14.5587C13.0479 14.5587 14 15.4803 14 16.7478V20C14 21.1046 14.8954 22 16 22H18C20.2659 22 22 20.066 22 17.8109V10.8663C22 9.59706 21.4494 8.38059 20.479 7.57827Z" fill="currentColor"></path>
</symbol>
<symbol viewBox="0 0 24 24" fill="none" id="inbox">
<path fill-rule="evenodd" clip-rule="evenodd" d="M5.7 5.48754C6.46226 3.96301 8.02045 3 9.72493 3H14.2751C15.9795 3 17.5377 3.96301 18.3 5.48754L20.715 10.3174C20.8385 10.5647 20.9231 10.8286 20.9663 11.1H21V16.5C21 18.9853 18.9853 21 16.5 21H7.5C5.01472 21 3 18.9853 3 16.5V11.1H3.03364C3.07689 10.8286 3.16142 10.5647 3.28505 10.3174L5.7 5.48754ZM19.0938 11.1H17.85C16.1103 11.1 14.7 12.5103 14.7 14.25C14.7 14.9956 14.0956 15.6 13.35 15.6H10.65C9.90441 15.6 9.3 14.9956 9.3 14.25C9.3 12.5103 7.8897 11.1 6.15 11.1H4.90623L7.30996 6.29252C7.76733 5.37781 8.70224 4.8 9.72493 4.8H14.2751C15.2978 4.8 16.2327 5.37781 16.69 6.29252L19.0938 11.1Z" fill="currentColor"></path>
</symbol>
<symbol viewBox="0 0 24 24" fill="none" id="info">
<path d="M11 8C11 7.44772 11.4477 7 12 7C12.5523 7 13 7.44772 13 8C13 8.55228 12.5523 9 12 9C11.4477 9 11 8.55228 11 8ZM11 12C11 11.4477 11.4477 11 12 11C12.5523 11 13 11.4477 13 12V16C13 16.5523 12.5523 17 12 17C11.4477 17 11 16.5523 11 16V12ZM12 2C6.48 2 2 6.48 2 12C2 17.52 6.48 22 12 22C17.52 22 22 17.52 22 12C22 6.48 17.52 2 12 2ZM12 20C7.59 20 4 16.41 4 12C4 7.59 7.59 4 12 4C16.41 4 20 7.59 20 12C20 16.41 16.41 20 12 20Z" fill="currentColor"></path>
</symbol>
<symbol viewBox="0 0 24 24" fill="none" id="listarrow">
<g clip-path="url(#clip0_3_6712)">
<path d="M11.9999 17C11.7447 16.9987 11.4929 16.9406 11.2628 16.8299C11.0328 16.7192 10.8302 16.5587 10.6699 16.36L6.45995 11.26C6.21394 10.953 6.05913 10.583 6.01316 10.1923C5.9672 9.80153 6.03191 9.40574 6.19995 9.05C6.33623 8.74083 6.55862 8.47741 6.84057 8.29122C7.12251 8.10503 7.45209 8.00393 7.78995 8H16.2099C16.5478 8.00393 16.8774 8.10503 17.1593 8.29122C17.4413 8.47741 17.6637 8.74083 17.7999 9.05C17.968 9.40574 18.0327 9.80153 17.9867 10.1923C17.9408 10.583 17.786 10.953 17.5399 11.26L13.3299 16.36C13.1696 16.5587 12.9671 16.7192 12.7371 16.8299C12.507 16.9406 12.2552 16.9987 11.9999 17Z" fill="currentColor"></path>
</g>
<defs>
<clipPath id="clip0_3_6712">
<rect width="24" height="24" fill="white"></rect>
</clipPath>
</defs>
</symbol>
<symbol viewBox="0 0 24 24" fill="none" id="logout">
<path d="M21.6 6.83733V17.0352C21.6 18.1036 20.9253 19.172 19.8651 19.5604L15.0457 21.4058C14.7566 21.5029 14.4675 21.6 14.0819 21.6C13.6 21.6 13.0217 21.4058 12.5398 21.1145C12.347 20.9202 12.0578 20.7259 11.9614 20.5316H8.29878C6.853 20.5316 5.59998 19.3662 5.59998 17.8122V16.841C5.59998 16.4525 5.88914 16.064 6.37106 16.064C6.853 16.064 7.14215 16.3554 7.14215 16.841V17.8122C7.14215 18.4921 7.72046 18.9777 8.29878 18.9777H11.4795V4.992H8.29878C7.62407 4.992 7.14215 5.47762 7.14215 6.15748V7.1287C7.14215 7.51719 6.853 7.90569 6.37106 7.90569C5.88914 7.90569 5.59998 7.51719 5.59998 7.1287V6.15748C5.59998 4.70063 6.75661 3.43803 8.29878 3.43803H11.9614C12.1542 3.24378 12.347 3.04954 12.5398 2.85529C13.3108 2.36967 14.1783 2.27255 15.0457 2.56392L19.8651 4.40926C20.8289 4.70063 21.6 5.76898 21.6 6.83733Z" fill="currentColor"></path>
<path d="M5.05265 14.4C4.86318 14.4 4.67371 14.3116 4.57897 14.2231L2.68423 12.4534C2.5895 12.3649 2.5895 12.2765 2.49476 12.2765C2.49476 12.188 2.40002 12.0995 2.40002 12.0111C2.40002 11.9226 2.40002 11.8341 2.49476 11.7457C2.49476 11.6572 2.5895 11.5686 2.68423 11.5686L4.57897 9.79906C4.86318 9.53362 5.33687 9.53362 5.62108 9.79906C5.90529 10.0645 5.90529 10.5069 5.62108 10.7723L4.95792 11.3917H8.84213C9.22108 11.3917 9.60002 11.6571 9.60002 12.0995C9.60002 12.542 9.22108 12.6305 8.84213 12.6305H4.86318L5.52634 13.2497C5.81055 13.5152 5.81055 13.9576 5.52634 14.2231C5.43161 14.3116 5.24213 14.4 5.05265 14.4Z" fill="#596780"></path>
</symbol>
<symbol viewBox="0 0 24 24" fill="none" id="more">
<path d="M3.39949 7.41283C2.86684 7.95646 2.86684 8.83795 3.39949 9.38157L10.0727 16.1855C11.1382 17.2719 12.8648 17.2715 13.9299 16.1845L20.6005 9.37656C21.1332 8.83294 21.1332 7.95145 20.6005 7.40782C20.0678 6.86406 19.2041 6.86406 18.6714 7.40782L12.9621 13.2347C12.4293 13.7783 11.5657 13.7783 11.0331 13.2347L5.32852 7.41283C4.79586 6.86921 3.93215 6.86921 3.39949 7.41283Z" fill="currentColor"></path>
</symbol>
<symbol viewBox="0 0 24 24" fill="none" id="notification">
<path d="M19.3399 14.49L18.3399 12.83C18.1299 12.46 17.9399 11.76 17.9399 11.35V8.82C17.9399 6.47 16.5599 4.44 14.5699 3.49C14.0499 2.57 13.0899 2 11.9899 2C10.8999 2 9.91994 2.59 9.39994 3.52C7.44994 4.49 6.09994 6.5 6.09994 8.82V11.35C6.09994 11.76 5.90994 12.46 5.69994 12.82L4.68994 14.49C4.28994 15.16 4.19994 15.9 4.44994 16.58C4.68994 17.25 5.25994 17.77 5.99994 18.02C7.93994 18.68 9.97994 19 12.0199 19C14.0599 19 16.0999 18.68 18.0399 18.03C18.7399 17.8 19.2799 17.27 19.5399 16.58C19.7999 15.89 19.7299 15.13 19.3399 14.49Z" fill="currentColor"></path>
<path d="M14.8301 20.01C14.4101 21.17 13.3001 22 12.0001 22C11.2101 22 10.4301 21.68 9.88005 21.11C9.56005 20.81 9.32005 20.41 9.18005 20C9.31005 20.02 9.44005 20.03 9.58005 20.05C9.81005 20.08 10.0501 20.11 10.2901 20.13C10.8601 20.18 11.4401 20.21 12.0201 20.21C12.5901 20.21 13.1601 20.18 13.7201 20.13C13.9301 20.11 14.1401 20.1 14.3401 20.07C14.5001 20.05 14.6601 20.03 14.8301 20.01Z" fill="currentColor"></path>
</symbol>
<symbol viewBox="0 0 24 24" fill="none" id="password">
<path fill-rule="evenodd" clip-rule="evenodd" d="M21 8.6641C21 11.7923 18.4537 14.3282 15.3126 14.3282C14.7395 14.3282 13.4345 14.1965 12.7997 13.6696L12.006 14.46C11.5395 14.9246 11.6655 15.0615 11.873 15.2868C11.9596 15.3809 12.0605 15.4903 12.1383 15.6455C12.1383 15.6455 12.7996 16.5675 12.1383 17.4896C11.7415 18.0164 10.6305 18.7541 9.36079 17.4896L9.09626 17.753C9.09626 17.753 9.88984 18.675 9.22852 19.5971C8.83173 20.124 7.77363 20.6509 6.84778 19.7289L5.92194 20.6509C5.28707 21.2832 4.51115 20.9143 4.20254 20.6509L3.40897 19.8605C2.66829 19.1229 3.10035 18.3238 3.40897 18.0164L10.2867 11.1669C10.2867 11.1669 9.62535 10.113 9.62535 8.6641C9.62535 5.5359 12.1716 3 15.3126 3C18.4537 3 21 5.5359 21 8.6641ZM15.3129 10.64C16.4086 10.64 17.2968 9.75541 17.2968 8.66418C17.2968 7.57295 16.4086 6.68833 15.3129 6.68833C14.2171 6.68833 13.3289 7.57295 13.3289 8.66418C13.3289 9.75541 14.2171 10.64 15.3129 10.64Z" fill="currentColor"></path>
</symbol>
<symbol viewBox="0 0 24 24" fill="none" id="profile">
<path d="M12 10C14.2091 10 16 8.20914 16 6C16 3.79086 14.2091 2 12 2C9.79086 2 8 3.79086 8 6C8 8.20914 9.79086 10 12 10Z" fill="currentColor"></path>
<path d="M20 17.5C20 19.9853 20 22 12 22C4 22 4 19.9853 4 17.5C4 15.0147 7.58172 13 12 13C16.4183 13 20 15.0147 20 17.5Z" fill="currentColor"></path>
</symbol>
<symbol viewBox="0 0 24 24" fill="none" id="search">
<path d="M11.5 21C16.7467 21 21 16.7467 21 11.5C21 6.25329 16.7467 2 11.5 2C6.25329 2 2 6.25329 2 11.5C2 16.7467 6.25329 21 11.5 21Z" stroke="currentColor" stroke-width="2" stroke-linecap="round" stroke-linejoin="round"></path>
<path d="M22 22L20 20" stroke="currentColor" stroke-width="1.5" stroke-linecap="round" stroke-linejoin="round"></path>
</symbol>
<symbol viewBox="0 0 24 24" fill="none" id="setting">
<path d="M20.1 9.22C18.29 9.22 17.55 7.94 18.45 6.37C18.97 5.46 18.66 4.3 17.75 3.78L16.02 2.79C15.23 2.32 14.21 2.6 13.74 3.39L13.63 3.58C12.73 5.15 11.25 5.15 10.34 3.58L10.23 3.39C9.78 2.6 8.76 2.32 7.97 2.79L6.24 3.78C5.33 4.3 5.02 5.47 5.54 6.38C6.45 7.94 5.71 9.22 3.9 9.22C2.86 9.22 2 10.07 2 11.12V12.88C2 13.92 2.85 14.78 3.9 14.78C5.71 14.78 6.45 16.06 5.54 17.63C5.02 18.54 5.33 19.7 6.24 20.22L7.97 21.21C8.76 21.68 9.78 21.4 10.25 20.61L10.36 20.42C11.26 18.85 12.74 18.85 13.65 20.42L13.76 20.61C14.23 21.4 15.25 21.68 16.04 21.21L17.77 20.22C18.68 19.7 18.99 18.53 18.47 17.63C17.56 16.06 18.3 14.78 20.11 14.78C21.15 14.78 22.01 13.93 22.01 12.88V11.12C22 10.08 21.15 9.22 20.1 9.22ZM12 15.25C10.21 15.25 8.75 13.79 8.75 12C8.75 10.21 10.21 8.75 12 8.75C13.79 8.75 15.25 10.21 15.25 12C15.25 13.79 13.79 15.25 12 15.25Z" fill="currentColor"></path>
</symbol>
<symbol viewBox="0 0 24 24" fill="none" id="share">
<path fill-rule="evenodd" clip-rule="evenodd" d="M13.6969 6C13.6969 4.34314 15.108 3 16.8485 3C18.589 3 20 4.34314 20 6C20 7.65685 18.589 9 16.8485 9C15.9696 9 15.1753 8.65736 14.6043 8.10612L10.2416 10.9465C10.2819 11.1383 10.3031 11.3362 10.3031 11.5385C10.3031 11.939 10.2202 12.3218 10.0702 12.6718L14.8539 15.6772C15.3969 15.2545 16.0916 15 16.8485 15C18.589 15 20 16.3431 20 18C20 19.6568 18.589 21 16.8485 21C15.108 21 13.6969 19.6568 13.6969 18C13.6969 17.566 13.7941 17.1529 13.9687 16.78L9.2236 13.7988C8.67008 14.2588 7.94504 14.5385 7.15151 14.5385C5.41098 14.5385 4 13.1953 4 11.5385C4 9.88161 5.41098 8.53846 7.15151 8.53846C8.15238 8.53846 9.04332 8.98252 9.62019 9.67366L13.8484 6.92078C13.75 6.63023 13.6969 6.32064 13.6969 6Z" fill="currentColor"></path>
</symbol>
<symbol viewBox="0 0 24 24" fill="none" id="showpass">
<path d="M10 12C10 10.8955 10.8955 10 12 10C13.1045 10 14 10.8955 14 12C14 13.1045 13.1045 14 12 14C10.8955 14 10 13.1045 10 12Z" fill="currentColor"></path>
<path fill-rule="evenodd" clip-rule="evenodd" d="M3 12C3 13.4345 3.38246 13.9176 4.1474 14.8837C5.67476 16.8128 8.2363 19 12 19C15.7637 19 18.3252 16.8128 19.8526 14.8837C20.6175 13.9176 21 13.4345 21 12C21 10.5655 20.6175 10.0825 19.8526 9.11629C18.3252 7.18712 15.7637 5 12 5C8.2363 5 5.67476 7.18712 4.1474 9.11629C3.38246 10.0825 3 10.5655 3 12ZM12 8.71875C10.136 8.71875 8.625 10.1878 8.625 12C8.625 13.8122 10.136 15.2812 12 15.2812C13.864 15.2812 15.375 13.8122 15.375 12C15.375 10.1878 13.864 8.71875 12 8.71875Z" fill="currentColor"></path>
</symbol>
<symbol viewBox="0 0 24 24" fill="none" id="success">
<path d="M12 2C6.48 2 2 6.48 2 12C2 17.52 6.48 22 12 22C17.52 22 22 17.52 22 12C22 6.48 17.52 2 12 2ZM12 20C7.59 20 4 16.41 4 12C4 7.59 7.59 4 12 4C16.41 4 20 7.59 20 12C20 16.41 16.41 20 12 20ZM17.2975 8.29251C16.9074 7.89963 16.2719 7.89811 15.8804 8.28961L10.7057 13.4643C10.3158 13.8542 9.68364 13.8549 9.2929 13.4656L8.11568 12.293C7.72572 11.9045 7.09489 11.9051 6.70568 12.2943C6.31594 12.6841 6.31594 13.3159 6.70568 13.7057L9.29289 16.2929C9.68342 16.6834 10.3166 16.6834 10.7071 16.2929L17.2954 9.70461C17.6849 9.31506 17.6857 8.68343 17.2975 8.29251Z" fill="currentColor"></path>
</symbol>
<symbol viewBox="0 0 24 24" fill="none" id="viewGrid">
<path d="M4.28571 3C3.57254 3 3 3.57254 3 4.28571V9.42857C3 10.1417 3.57254 10.7143 4.28571 10.7143H9.42857C10.1417 10.7143 10.7143 10.1417 10.7143 9.42857V4.28571C10.7143 3.57254 10.1417 3 9.42857 3H4.28571ZM14.5714 3C13.8583 3 13.2857 3.57254 13.2857 4.28571V9.42857C13.2857 10.1417 13.8583 10.7143 14.5714 10.7143H19.7143C20.4275 10.7143 21 10.1417 21 9.42857V4.28571C21 3.57254 20.4275 3 19.7143 3H14.5714ZM4.28571 13.2857C3.57254 13.2857 3 13.8583 3 14.5714V19.7143C3 20.4275 3.57254 21 4.28571 21H9.42857C10.1417 21 10.7143 20.4275 10.7143 19.7143V14.5714C10.7143 13.8583 10.1417 13.2857 9.42857 13.2857H4.28571ZM14.5714 13.2857C13.8583 13.2857 13.2857 13.8583 13.2857 14.5714V19.7143C13.2857 20.4275 13.8583 21 14.5714 21H19.7143C20.4275 21 21 20.4275 21 19.7143V14.5714C21 13.8583 20.4275 13.2857 19.7143 13.2857H14.5714Z" fill="currentColor"></path>
</symbol>
<symbol viewBox="0 0 24 24" fill="none" id="viewList">
<path d="M20.3077 4C20.3077 4 21 4.31465 21 4.70657V6.10316C21 6.48956 20.3077 6.80973 20.3077 6.80973H18.9231C18.9231 6.80973 18.2308 6.48956 18.2308 6.10316V4.70657C18.2308 4.31465 18.9231 4 18.9231 4H20.3077ZM14.7692 4C15.1532 4 15.4615 4.31465 15.4615 4.70657V6.10316C15.4615 6.48956 15.1532 6.80973 14.7692 6.80973H3.69231C3.30829 6.80973 3 6.48956 3 6.10316V4.70657C3 4.31465 3.30829 4 3.69231 4H14.7692ZM20.3077 11.0657C20.3077 11.0657 21 11.3804 21 11.7723V13.1689C21 13.5553 20.3077 13.8755 20.3077 13.8755H18.9231C18.9231 13.8755 18.2308 13.5553 18.2308 13.1689V11.7723C18.2308 11.3804 18.9231 11.0657 18.9231 11.0657H20.3077ZM14.7692 11.0657C14.7692 11.0657 15.4615 11.3804 15.4615 11.7723V13.1689C15.4615 13.5553 15.1532 13.8755 14.7692 13.8755H3.69231C3.30829 13.8755 3 13.5553 3 13.1689V11.7723C3 11.3804 3.69231 11.0657 3.69231 11.0657H14.7692ZM20.3077 18.1314C20.6917 18.1314 21 18.4461 21 18.838V20.2346C21 20.621 20.3077 20.9412 20.3077 20.9412H18.9231C18.9231 20.9412 18.2308 20.621 18.2308 20.2346V18.838C18.2308 18.4461 18.5391 18.1314 18.9231 18.1314H20.3077ZM14.7692 18.1314C15.1532 18.1314 15.4615 18.4461 15.4615 18.838V20.2346C15.4615 20.621 15.1532 20.9412 14.7692 20.9412H3.69231C3.30829 20.9412 3 20.621 3 20.2346V18.838C3 18.4461 3.30829 18.1314 3.69231 18.1314H14.7692Z" fill="currentColor"></path>
</symbol>
<symbol viewBox="0 0 24 24" fill="none" id="warning">
<path d="M1.86902 19.499C1.48306 20.1656 1.96411 21 2.73445 21H21.2656C22.0359 21 22.5169 20.1656 22.131 19.499L12.8654 3.49482C12.4803 2.82954 11.5197 2.82954 11.1346 3.49483L1.86902 19.499ZM13 17C13 17.5523 12.5523 18 12 18C11.4477 18 11 17.5523 11 17C11 16.4477 11.4477 16 12 16C12.5523 16 13 16.4477 13 17ZM13 13C13 13.5523 12.5523 14 12 14C11.4477 14 11 13.5523 11 13V11C11 10.4477 11.4477 10 12 10C12.5523 10 13 10.4477 13 11V13Z" fill="currentColor
"></path>
</symbol>
<symbol viewBox="0 0 24 24" fill="none" id="wrong">
<path d="M18.357 5.97823C18.1552 5.76706 17.9125 5.59895 17.6436 5.48409C17.3748 5.36922 17.0853 5.31 16.7928 5.31C16.5004 5.31 16.2109 5.36922 15.942 5.48409C15.6732 5.59895 15.4305 5.76706 15.2287 5.97823L11.9887 9.20961L8.86044 6.08965C8.44418 5.6828 7.88375 5.45623 7.30094 5.45916C6.71812 5.4621 6.16001 5.69431 5.74789 6.10533C5.33578 6.51635 5.10295 7.07298 5.1 7.65425C5.09706 8.23552 5.32424 8.79446 5.73217 9.20961L8.86044 12.3296L5.73217 15.4495C5.32424 15.8647 5.09706 16.4236 5.1 17.0049C5.10295 17.5862 5.33578 18.1428 5.74789 18.5538C6.16001 18.9648 6.71812 19.197 7.30094 19.2C7.88375 19.2029 8.44418 18.9763 8.86044 18.5695L11.9887 15.4495L15.117 18.5695C15.5332 18.9763 16.0937 19.2029 16.6765 19.2C17.2593 19.197 17.8174 18.9648 18.2295 18.5538C18.6417 18.1428 18.8745 17.5862 18.8774 17.0049C18.8804 16.4236 18.6532 15.8647 18.2453 15.4495L15.117 12.3296L18.2453 9.20961C18.6642 8.7817 18.9079 8.21321 18.9285 7.6155C18.9492 7.01778 18.7454 6.4339 18.357 5.97823Z" fill="currentColor"></path>
</symbol>
</defs>
</svg>
