<?xml version="1.0" encoding="UTF-8" standalone="no"?>
<svg
   xmlns:dc="http://purl.org/dc/elements/1.1/"
   xmlns:cc="http://creativecommons.org/ns#"
   xmlns:rdf="http://www.w3.org/1999/02/22-rdf-syntax-ns#"
   xmlns:svg="http://www.w3.org/2000/svg"
   xmlns="http://www.w3.org/2000/svg"
   xmlns:sodipodi="http://sodipodi.sourceforge.net/DTD/sodipodi-0.dtd"
   xmlns:inkscape="http://www.inkscape.org/namespaces/inkscape"
   version="1.1"
   id="svg2"
   xml:space="preserve"
   width="74.666664"
   height="74.666664"
   viewBox="0 0 74.666664 74.666664"
   sodipodi:docname="Shape@1.5x (2).eps"><metadata
     id="metadata8"><rdf:RDF><cc:Work
         rdf:about=""><dc:format>image/svg+xml</dc:format><dc:type
           rdf:resource="http://purl.org/dc/dcmitype/StillImage" /></cc:Work></rdf:RDF></metadata><defs
     id="defs6"><clipPath
       clipPathUnits="userSpaceOnUse"
       id="clipPath20"><path
         d="M 0,0 H 560 V 560 H 0 Z"
         id="path18" /></clipPath><clipPath
       clipPathUnits="userSpaceOnUse"
       id="clipPath26"><path
         d="m 537.996,384.395 c 8.981,0 16.262,-7.282 16.262,-16.258 V 129.66 c 0,-4.312 -1.715,-8.449 -4.766,-11.5 L 441.094,9.76172 C 438.047,6.71484 433.91,5 429.598,5 H 191.121 c -8.98,0 -16.258,7.2813 -16.258,16.2617 v 71.543 H 103.32 c -8.9802,0 -16.2614,7.2773 -16.2614,16.2583 v 71.542 h -71.543 c -8.98044,0 -16.257788,7.282 -16.257788,16.262 v 346.875 c 0,8.977 7.277348,16.258 16.257788,16.258 H 362.391 c 8.98,0 16.261,-7.281 16.261,-16.258 v -71.543 h 71.543 c 8.977,0 16.258,-7.281 16.258,-16.261 V 384.395 Z M 31.7773,213.125 h 55.2813 v 242.813 c 0,8.98 7.2812,16.261 16.2614,16.261 H 346.133 V 527.48 H 31.7773 Z m 87.8007,-87.801 h 55.285 v 242.813 c 0,8.976 7.278,16.258 16.258,16.258 H 433.934 V 439.68 H 119.578 Z m 87.805,226.551 V 37.5195 H 413.34 V 129.66 c 0,8.977 7.277,16.258 16.258,16.258 h 92.14 V 351.875 Z M 498.742,113.398 H 445.859 V 60.5156 Z M 256.16,286.836 c -8.98,0 -16.258,7.281 -16.258,16.262 0,8.976 7.278,16.257 16.258,16.257 h 216.797 c 8.981,0 16.262,-7.281 16.262,-16.257 0,-8.981 -7.281,-16.262 -16.262,-16.262 z m 0,-65.039 c -8.98,0 -16.258,7.281 -16.258,16.262 0,8.976 7.278,16.257 16.258,16.257 h 216.797 c 8.981,0 16.262,-7.281 16.262,-16.257 0,-8.981 -7.281,-16.262 -16.262,-16.262 z m 130.078,-32.52 c 8.981,0 16.262,-7.281 16.262,-16.257 0,-8.981 -7.281,-16.262 -16.262,-16.262 H 256.16 c -8.98,0 -16.258,7.281 -16.258,16.262 0,8.976 7.278,16.257 16.258,16.257 z m -21.679,-65.039 c 8.98,0 16.261,-7.281 16.261,-16.258 0,-8.98 -7.281,-16.2612 -16.261,-16.2612 H 256.16 c -8.98,0 -16.258,7.2812 -16.258,16.2612 0,8.977 7.278,16.258 16.258,16.258 z"
         id="path24" /></clipPath><clipPath
       clipPathUnits="userSpaceOnUse"
       id="clipPath32"><path
         d="M 0,5 H 554.258 V 560 H 0 Z"
         id="path30" /></clipPath></defs><sodipodi:namedview
     pagecolor="#ffffff"
     bordercolor="#666666"
     borderopacity="1"
     objecttolerance="10"
     gridtolerance="10"
     guidetolerance="10"
     inkscape:pageopacity="0"
     inkscape:pageshadow="2"
     inkscape:window-width="640"
     inkscape:window-height="480"
     id="namedview4" /><g
     id="g10"
     inkscape:groupmode="layer"
     inkscape:label="ink_ext_XXXXXX"
     transform="matrix(1.3333333,0,0,-1.3333333,0,74.666667)"><g
       id="g12"
       transform="scale(0.1)"><g
         id="g14"><g
           id="g16"
           clip-path="url(#clipPath20)"><g
             id="g22"
             clip-path="url(#clipPath26)"><g
               id="g28"
               clip-path="url(#clipPath32)"><path
                 d="m -75.7422,-70 h 705 v 705 h -705 z"
                 style="fill:#ffffff;fill-opacity:1;fill-rule:nonzero;stroke:none"
                 id="path34" /></g></g></g></g></g></g></svg>
