<?xml version="1.0" encoding="UTF-8"?>
<svg width="32px" height="31px" viewBox="0 0 32 31" version="1.1" xmlns="http://www.w3.org/2000/svg" xmlns:xlink="http://www.w3.org/1999/xlink">
    <!-- Generator: sketchtool 55.2 (78181) - https://sketchapp.com -->
    <title>8594B226-F3C6-47CC-BBD2-F69C9C3CC26E@1.5x</title>
    <desc>Created with sketchtool.</desc>
    <g id="Asset-Artboard-Page" stroke="none" stroke-width="1" fill="none" fill-rule="evenodd">
        <g id="facebook-copy-6" transform="translate(0.462810, 0.000000)" fill="#FFFFFF" fill-rule="nonzero">
            <path d="M9.01934095,27.125 L4.21845615,27.125 L4.21845615,11.625 L9.01934095,11.625 L9.01934095,27.125 Z M9.49835815,6.68667911 C9.49835815,5.13469656 8.23919738,3.875 6.68801859,3.875 C5.13094582,3.875 3.875,5.13469656 3.875,6.68667911 C3.875,8.23919743 5.13094582,9.498894 6.68801859,9.498894 C8.23919738,9.498894 9.49835815,8.23919743 9.49835815,6.68667911 Z M26.9878315,18.5975349 C26.9878315,14.4366788 26.1088302,11.3506636 21.2482022,11.3506636 C18.9125931,11.3506636 17.3448042,12.518736 16.7047754,13.7334242 L16.700221,13.7334242 L16.700221,11.6249999 L12.0365043,11.6249999 L12.0365043,27.1249994 L16.700221,27.1249994 L16.700221,19.4291167 C16.700221,17.413656 17.213262,15.4611533 19.7114903,15.4611533 C22.1756946,15.4611533 22.2555307,17.765953 22.2555307,19.5571761 L22.2555307,27.1249994 L26.9878315,27.1249994 L26.9878315,18.5975349 Z" id="Shape"></path>
        </g>
    </g>
</svg>