<?xml version="1.0" encoding="UTF-8" standalone="no"?>
<svg
  xmlns:dc="http://purl.org/dc/elements/1.1/"
  xmlns:cc="http://creativecommons.org/ns#"
  xmlns:rdf="http://www.w3.org/1999/02/22-rdf-syntax-ns#"
  xmlns:svg="http://www.w3.org/2000/svg"
  xmlns="http://www.w3.org/2000/svg"
  xmlns:sodipodi="http://sodipodi.sourceforge.net/DTD/sodipodi-0.dtd"
  xmlns:inkscape="http://www.inkscape.org/namespaces/inkscape"
  version="1.1"
  id="svg2"
  xml:space="preserve"
  viewBox="0 0 74.666664 56"
  sodipodi:docname="Shape@1.5x (5).eps"><metadata
     id="metadata8"><rdf:RDF><cc:Work
         rdf:about=""><dc:format>image/svg+xml</dc:format><dc:type
           rdf:resource="http://purl.org/dc/dcmitype/StillImage" /></cc:Work></rdf:RDF></metadata><defs
     id="defs6"><clipPath
       clipPathUnits="userSpaceOnUse"
       id="clipPath20"><path
         d="M 0,0 H 560 V 420 H 0 Z"
         id="path18" /></clipPath><clipPath
       clipPathUnits="userSpaceOnUse"
       id="clipPath26"><path
         d="m 145.055,349.223 116.722,59.172 c 10.141,5.14 22.532,1.089 27.672,-9.051 2.793,-5.508 2.965,-11.981 0.469,-17.629 L 162.043,92.3203 C 158.75,84.8633 151.367,80.0547 143.215,80.0547 H 19.8438 c -11.37114,0 -20.585988,9.2187 -20.585988,20.5863 0,3.652 0.968751,7.234 2.808598,10.386 L 136.59,341.246 c 1.996,3.418 4.933,6.188 8.465,7.977 z M 134.246,114.406 242.91,360.32 164.199,320.418 43.8242,114.406 Z M 358.039,370.07 551.441,39.082 c 5.735,-9.8164 2.426,-22.4218 -7.39,-28.1601 -3.149,-1.83987 -6.735,-2.81252 -10.383,-2.81252 h -388.23 c -9.489,0 -17.176,7.69142 -17.176,17.17582 0,9.4843 7.687,17.1757 17.176,17.1757 h 228.05 L 248.738,202.117 321.41,367.949 c 4.563,10.414 16.703,15.156 27.117,10.59 3.989,-1.746 7.317,-4.711 9.512,-8.469 z M 288.43,207.109 417.082,42.457 h 92.606 L 342.02,329.402 Z"
         id="path24" /></clipPath><clipPath
       clipPathUnits="userSpaceOnUse"
       id="clipPath32"><path
         d="M 0,0 H 554.258 V 420 H 0 Z"
         id="path30" /></clipPath></defs><sodipodi:namedview
     pagecolor="#ffffff"
     bordercolor="#666666"
     borderopacity="1"
     objecttolerance="10"
     gridtolerance="10"
     guidetolerance="10"
     inkscape:pageopacity="0"
     inkscape:pageshadow="2"
     inkscape:window-width="640"
     inkscape:window-height="480"
     id="namedview4" /><g
     id="g10"
     inkscape:groupmode="layer"
     inkscape:label="ink_ext_XXXXXX"
     transform="matrix(1.3333333,0,0,-1.3333333,0,56)"><g
       id="g12"
       transform="scale(0.1)"><g
         id="g14"><g
           id="g16"
           clip-path="url(#clipPath20)"><g
             id="g22"
             clip-path="url(#clipPath26)"><g
               id="g28"
               clip-path="url(#clipPath32)"><path
                 d="m -75.7422,-66.8906 h 705 v 552.516 h -705 z"
                 style="fill:#ffffff;fill-opacity:1;fill-rule:nonzero;stroke:none"
                 id="path34" /></g></g></g></g></g></g></svg>