<?xml version="1.0" encoding="UTF-8" standalone="no"?>
<svg
  xmlns:dc="http://purl.org/dc/elements/1.1/"
  xmlns:cc="http://creativecommons.org/ns#"
  xmlns:rdf="http://www.w3.org/1999/02/22-rdf-syntax-ns#"
  xmlns:svg="http://www.w3.org/2000/svg"
  xmlns="http://www.w3.org/2000/svg"
  xmlns:sodipodi="http://sodipodi.sourceforge.net/DTD/sodipodi-0.dtd"
  xmlns:inkscape="http://www.inkscape.org/namespaces/inkscape"
  version="1.1"
  id="svg2"
  xml:space="preserve"
  viewBox="0 0 48 74.666664"
  sodipodi:docname="Shape@1.5x (3).eps"><metadata
     id="metadata8"><rdf:RDF><cc:Work
         rdf:about=""><dc:format>image/svg+xml</dc:format><dc:type
           rdf:resource="http://purl.org/dc/dcmitype/StillImage" /></cc:Work></rdf:RDF></metadata><defs
     id="defs6"><clipPath
       clipPathUnits="userSpaceOnUse"
       id="clipPath20"><path
         d="M 306.895,5 H 59.7461 C 32.25,5 9.88281,27.3672 9.88281,54.8633 V 510.137 C 9.88281,537.633 32.25,560 59.7461,560 H 306.895 c 27.492,0 49.863,-22.367 49.863,-49.863 V 54.8633 C 356.758,27.3672 334.387,5 306.895,5 Z M 59.7461,525.313 c -8.3711,0 -15.1758,-6.809 -15.1758,-15.176 V 54.8633 c 0,-8.3672 6.8047,-15.1758 15.1758,-15.1758 H 306.895 c 8.367,0 15.175,6.8086 15.175,15.1758 V 510.137 c 0,8.367 -6.808,15.176 -15.175,15.176 z M 218.008,464.609 h -69.375 c -9.582,0 -17.344,7.766 -17.344,17.344 0,9.578 7.762,17.344 17.344,17.344 h 69.375 c 9.578,0 17.344,-7.766 17.344,-17.344 0,-9.578 -7.766,-17.344 -17.344,-17.344 z m 54.867,-145.691 c 0.105,-0.105 8.004,-4.289 8.004,-14.004 v -98.262 c 0,-5.636 -2.922,-10.871 -7.719,-13.832 l -81.297,-50.215 c -2.504,-1.546 -5.539,-2.425 -8.543,-2.425 -3.07,0 -6.086,0.906 -8.547,2.425 L 93.4766,192.82 c -4.7969,2.961 -7.7149,8.196 -7.7149,13.832 v 98.262 c 0,5.934 3.2461,11.231 8.0625,14.043 l 81.3708,49.016 c 5.176,3.117 11.653,3.105 16.821,-0.028 90.273,-54.734 79.336,-48.121 80.859,-49.027 z M 167.059,185.59 v 61.019 l -48.782,29.481 v -60.371 z m 16.257,89.191 49.903,30.153 -49.66,30.109 -50.063,-30.152 z m 65.039,-59.062 v 60.367 L 199.578,246.609 V 185.59 Z"
         id="path18" /></clipPath><clipPath
       clipPathUnits="userSpaceOnUse"
       id="clipPath26"><path
         d="M 0,5 H 360 V 560 H 0 Z"
         id="path24" /></clipPath></defs><sodipodi:namedview
     pagecolor="#ffffff"
     bordercolor="#666666"
     borderopacity="1"
     objecttolerance="10"
     gridtolerance="10"
     guidetolerance="10"
     inkscape:pageopacity="0"
     inkscape:pageshadow="2"
     inkscape:window-width="640"
     inkscape:window-height="480"
     id="namedview4" /><g
     id="g10"
     inkscape:groupmode="layer"
     inkscape:label="ink_ext_XXXXXX"
     transform="matrix(1.3333333,0,0,-1.3333333,0,74.666667)"><g
       id="g12"
       transform="scale(0.1)"><g
         id="g14"><g
           id="g16"
           clip-path="url(#clipPath20)"><g
             id="g22"
             clip-path="url(#clipPath26)"><path
               d="m -65.1172,-70 h 496.875 v 705 h -496.875 z"
               style="fill:#ffffff;fill-opacity:1;fill-rule:nonzero;stroke:none"
               id="path28" /></g></g></g></g></g></svg>