<?xml version="1.0" encoding="UTF-8" standalone="no"?>
<svg
  xmlns:dc="http://purl.org/dc/elements/1.1/"
  xmlns:cc="http://creativecommons.org/ns#"
  xmlns:rdf="http://www.w3.org/1999/02/22-rdf-syntax-ns#"
  xmlns:svg="http://www.w3.org/2000/svg"
  xmlns="http://www.w3.org/2000/svg"
  xmlns:sodipodi="http://sodipodi.sourceforge.net/DTD/sodipodi-0.dtd"
  xmlns:inkscape="http://www.inkscape.org/namespaces/inkscape"
  version="1.1"
  id="svg2"
  xml:space="preserve"
  viewBox="0 0 74.666664 74.666664"
  sodipodi:docname="Shape@1.5x (4).eps"><metadata
     id="metadata8"><rdf:RDF><cc:Work
         rdf:about=""><dc:format>image/svg+xml</dc:format><dc:type
           rdf:resource="http://purl.org/dc/dcmitype/StillImage" /></cc:Work></rdf:RDF></metadata><defs
     id="defs6"><clipPath
       clipPathUnits="userSpaceOnUse"
       id="clipPath20"><path
         d="M 0,0 H 560 V 560 H 0 Z"
         id="path18" /></clipPath><clipPath
       clipPathUnits="userSpaceOnUse"
       id="clipPath26"><path
         d="m 210.633,560 c 116.555,0 211.379,-94.824 211.379,-211.379 0,-52.433 -19.199,-100.465 -50.93,-137.449 l 21.992,-21.996 11.496,11.496 c 6.344,6.344 16.649,6.348 22.996,0 L 549.492,78.7422 c 6.352,-6.3516 6.352,-16.6445 0,-22.9961 L 503.508,9.76172 c -6.344,-6.34375 -16.645,-6.34766 -22.992,0 L 358.586,131.691 c -6.352,6.352 -6.352,16.645 0,22.997 l 11.492,11.492 -21.992,21.996 C 311.102,156.445 263.07,137.246 210.633,137.246 94.0781,137.246 -0.742188,232.07 -0.742188,348.621 -0.742188,465.176 94.0781,560 210.633,560 Z M 492.012,44.2539 515.004,67.2422 416.066,166.18 393.078,143.188 Z M 210.633,169.766 c 98.621,0 178.859,80.234 178.859,178.855 0,98.625 -80.238,178.859 -178.859,178.859 -98.621,0 -178.8557,-80.234 -178.8557,-178.859 0,-98.621 80.2347,-178.855 178.8557,-178.855 z m 86.066,241.121 c 6.348,6.347 16.645,6.347 22.992,0 6.348,-6.352 6.348,-16.649 0,-22.996 L 203.887,272.086 c -3.176,-3.176 -7.336,-4.762 -11.496,-4.762 -4.164,0 -8.325,1.586 -11.5,4.762 l -65.039,65.039 c -6.348,6.352 -6.348,16.645 0,22.996 6.351,6.348 16.648,6.348 22.996,0 l 53.543,-53.543 z"
         id="path24" /></clipPath><clipPath
       clipPathUnits="userSpaceOnUse"
       id="clipPath32"><path
         d="M 0,5 H 554.258 V 560 H 0 Z"
         id="path30" /></clipPath></defs><sodipodi:namedview
     pagecolor="#ffffff"
     bordercolor="#666666"
     borderopacity="1"
     objecttolerance="10"
     gridtolerance="10"
     guidetolerance="10"
     inkscape:pageopacity="0"
     inkscape:pageshadow="2"
     inkscape:window-width="640"
     inkscape:window-height="480"
     id="namedview4" /><g
     id="g10"
     inkscape:groupmode="layer"
     inkscape:label="ink_ext_XXXXXX"
     transform="matrix(1.3333333,0,0,-1.3333333,0,74.666667)"><g
       id="g12"
       transform="scale(0.1)"><g
         id="g14"><g
           id="g16"
           clip-path="url(#clipPath20)"><g
             id="g22"
             clip-path="url(#clipPath26)"><g
               id="g28"
               clip-path="url(#clipPath32)"><path
                 d="m -75.7422,-69.9961 h 705 v 704.996 h -705 z"
                 style="fill:#ffffff;fill-opacity:1;fill-rule:nonzero;stroke:none"
                 id="path34" /></g></g></g></g></g></g></svg>