<?xml version="1.0" encoding="UTF-8" standalone="no"?>
<svg
   xmlns:dc="http://purl.org/dc/elements/1.1/"
   xmlns:cc="http://creativecommons.org/ns#"
   xmlns:rdf="http://www.w3.org/1999/02/22-rdf-syntax-ns#"
   xmlns:svg="http://www.w3.org/2000/svg"
   xmlns="http://www.w3.org/2000/svg"
   xmlns:sodipodi="http://sodipodi.sourceforge.net/DTD/sodipodi-0.dtd"
   xmlns:inkscape="http://www.inkscape.org/namespaces/inkscape"
   version="1.1"
   id="svg2"
   xml:space="preserve"
   width="74.666664"
   height="74.666664"
   viewBox="0 0 74.666664 74.666664"
   sodipodi:docname="Shape@1.5x.eps"><metadata
     id="metadata8"><rdf:RDF><cc:Work
         rdf:about=""><dc:format>image/svg+xml</dc:format><dc:type
           rdf:resource="http://purl.org/dc/dcmitype/StillImage" /></cc:Work></rdf:RDF></metadata><defs
     id="defs6"><clipPath
       clipPathUnits="userSpaceOnUse"
       id="clipPath20"><path
         d="M 0,0 H 560 V 560 H 0 Z"
         id="path18" /></clipPath><clipPath
       clipPathUnits="userSpaceOnUse"
       id="clipPath26"><path
         d="M 554.258,511.223 V 183.859 c 0,-4.031 -0.496,-8.004 -1.465,-11.871 0.957,-6.75 1.465,-13.64 1.465,-20.648 C 554.258,70.7031 488.699,5.09375 408.086,5 H 145.594 c -8.981,0 -16.258,7.2813 -16.258,16.2617 0,39.2578 27.977,72.1094 65.039,79.6643 v 34.152 H 48.0352 c -26.8985,0 -48.777388,21.883 -48.777388,48.781 V 511.223 C -0.742188,538.117 21.1367,560 48.0352,560 H 505.477 c 26.898,0 48.781,-21.883 48.781,-48.777 z M 48.0352,167.598 H 262.488 c 1.254,11.273 3.789,22.269 7.461,32.629 H 31.7773 v -16.368 c 0,-8.968 7.293,-16.261 16.2579,-16.261 z M 269.949,102.559 c -3.672,10.359 -6.207,21.246 -7.461,32.519 H 226.895 V 102.559 Z M 164.641,37.5195 h 151.414 c -11.469,9.2735 -21.516,20.2383 -29.754,32.5196 h -75.668 c -21.199,0 -39.281,-13.5938 -45.992,-32.5196 z m 243.277,0 c 62.762,0 113.82,51.0586 113.82,113.8205 0,62.758 -51.058,113.816 -113.82,113.816 -62.758,0 -113.816,-51.058 -113.816,-113.816 0,-62.7619 51.058,-113.8205 113.816,-113.8205 z m 113.82,205.6835 v 268.02 c 0,8.965 -7.297,16.257 -16.261,16.257 H 48.0352 c -8.9649,0 -16.2579,-7.292 -16.2579,-16.257 V 232.637 H 286.301 c 26.285,39.191 70.988,65.039 121.617,65.039 45.926,0 86.969,-21.274 113.82,-54.473 z M 251.414,443.898 c 0.106,-0.109 8,-4.293 8,-14.007 v -98.262 c 0,-5.637 -2.922,-10.871 -7.715,-13.832 l -81.301,-50.215 c -2.5,-1.543 -5.535,-2.426 -8.543,-2.426 -3.07,0 -6.085,0.91 -8.542,2.426 l -81.3013,50.215 c -4.7969,2.961 -7.7148,8.195 -7.7148,13.832 v 98.262 c 0,5.937 3.2461,11.23 8.0625,14.047 l 81.3746,49.011 c 5.172,3.117 11.649,3.11 16.817,-0.023 90.277,-54.738 79.34,-48.125 80.863,-49.028 z M 145.594,310.57 v 61.02 l -48.7776,29.476 v -60.367 z m 16.261,89.188 49.899,30.156 -49.66,30.109 -50.063,-30.156 z m 65.04,-59.059 v 60.367 l -48.782,-29.48 V 310.57 Z m 213.543,120.66 c 8.98,0 16.261,-7.281 16.261,-16.261 0,-8.981 -7.281,-16.258 -16.261,-16.258 h -65.04 c -8.98,0 -16.257,7.277 -16.257,16.258 0,8.98 7.277,16.261 16.257,16.261 z m 0,-65.039 c 8.98,0 16.261,-7.281 16.261,-16.261 0,-8.981 -7.281,-16.258 -16.261,-16.258 h -65.04 c -8.98,0 -16.257,7.277 -16.257,16.258 0,8.98 7.277,16.261 16.257,16.261 z m -32.52,-196.203 c 26.898,0 48.781,-21.883 48.781,-48.777 0,-26.899 -21.883,-48.781 -48.781,-48.781 -26.684,0 -48.414,21.535 -48.762,48.136 -0.004,0.094 -0.015,0.184 -0.015,0.282 v 0.277 c 0,0.027 0,0.055 0,0.086 0,26.894 21.879,48.777 48.777,48.777 z m 0,-65.039 c 8.965,0 16.262,7.293 16.262,16.262 0,8.965 -7.297,16.258 -16.262,16.258 -8.957,0 -16.246,-7.285 -16.258,-16.239 0,-0.007 0,-0.015 0,-0.019 v -0.043 c 0.024,-8.949 7.305,-16.219 16.258,-16.219 z"
         id="path24" /></clipPath><clipPath
       clipPathUnits="userSpaceOnUse"
       id="clipPath32"><path
         d="M 0,5 H 554.258 V 560 H 0 Z"
         id="path30" /></clipPath></defs><sodipodi:namedview
     pagecolor="#ffffff"
     bordercolor="#666666"
     borderopacity="1"
     objecttolerance="10"
     gridtolerance="10"
     guidetolerance="10"
     inkscape:pageopacity="0"
     inkscape:pageshadow="2"
     inkscape:window-width="640"
     inkscape:window-height="480"
     id="namedview4" /><g
     id="g10"
     inkscape:groupmode="layer"
     inkscape:label="ink_ext_XXXXXX"
     transform="matrix(1.3333333,0,0,-1.3333333,0,74.666667)"><g
       id="g12"
       transform="scale(0.1)"><g
         id="g14"><g
           id="g16"
           clip-path="url(#clipPath20)"><g
             id="g22"
             clip-path="url(#clipPath26)"><g
               id="g28"
               clip-path="url(#clipPath32)"><path
                 d="m -75.7422,-70 h 705 v 705 h -705 z"
                 style="fill:#ffffff;fill-opacity:1;fill-rule:nonzero;stroke:none"
                 id="path34" /></g></g></g></g></g></g></svg>
