<?xml version="1.0" encoding="UTF-8" standalone="no"?>
<svg
   xmlns:dc="http://purl.org/dc/elements/1.1/"
   xmlns:cc="http://creativecommons.org/ns#"
   xmlns:rdf="http://www.w3.org/1999/02/22-rdf-syntax-ns#"
   xmlns:svg="http://www.w3.org/2000/svg"
   xmlns="http://www.w3.org/2000/svg"
   xmlns:sodipodi="http://sodipodi.sourceforge.net/DTD/sodipodi-0.dtd"
   xmlns:inkscape="http://www.inkscape.org/namespaces/inkscape"
   version="1.1"
   id="svg2"
   xml:space="preserve"
   width="74.666664"
   height="58.666668"
   viewBox="0 0 74.666664 58.666668"
   sodipodi:docname="Shape@1.5x (1).eps"><metadata
     id="metadata8"><rdf:RDF><cc:Work
         rdf:about=""><dc:format>image/svg+xml</dc:format><dc:type
           rdf:resource="http://purl.org/dc/dcmitype/StillImage" /></cc:Work></rdf:RDF></metadata><defs
     id="defs6"><clipPath
       clipPathUnits="userSpaceOnUse"
       id="clipPath20"><path
         d="M 0,0 H 560 V 440 H 0 Z"
         id="path18" /></clipPath><clipPath
       clipPathUnits="userSpaceOnUse"
       id="clipPath26"><path
         d="m 536.156,430.625 c 9.996,0 18.102,-8.105 18.102,-18.098 V 26.4414 c 0,-9.9961 -8.106,-18.09765 -18.102,-18.09765 H 17.3555 c -9.99612,0 -18.097688,8.10155 -18.097688,18.09765 V 412.527 c 0,9.993 8.101568,18.098 18.097688,18.098 z M 518.059,44.5391 V 286.23 H 35.4531 V 44.5391 Z m 0,277.8869 V 394.43 H 35.4531 v -72.004 z m -37.985,62.64 c 13.309,0 24.133,-10.824 24.133,-24.132 0,-13.305 -10.824,-24.129 -24.133,-24.129 -13.304,0 -24.129,10.824 -24.129,24.129 0,13.308 10.825,24.132 24.129,24.132 z m -65.734,0 c 13.308,0 24.133,-10.824 24.133,-24.132 0,-13.305 -10.825,-24.129 -24.133,-24.129 -13.305,0 -24.129,10.824 -24.129,24.129 0,13.308 10.824,24.132 24.129,24.132 z m -65.731,0 c 13.305,0 24.129,-10.824 24.129,-24.132 0,-13.305 -10.824,-24.129 -24.129,-24.129 -13.308,0 -24.132,10.824 -24.132,24.129 0,13.308 10.824,24.132 24.132,24.132 z M 254.48,179.168 c 8.489,-7.223 8.489,-20.348 0,-27.57 l -59.242,-50.407 c -7.613,-6.4762 -19.035,-5.5582 -25.511,2.055 -6.477,7.613 -5.559,19.031 2.054,25.512 l 43.043,36.625 -43.043,36.629 c -7.613,6.476 -8.535,17.898 -2.054,25.508 6.476,7.617 17.898,8.535 25.511,2.058 z m 115.524,-46.094 c 9.992,0 18.098,-8.105 18.098,-18.097 0,-9.997 -8.106,-18.102 -18.098,-18.102 h -71.496 c -9.996,0 -18.098,8.105 -18.098,18.102 0,9.992 8.106,18.097 18.098,18.097 z"
         id="path24" /></clipPath><clipPath
       clipPathUnits="userSpaceOnUse"
       id="clipPath32"><path
         d="M 0,0 H 554.258 V 440 H 0 Z"
         id="path30" /></clipPath></defs><sodipodi:namedview
     pagecolor="#ffffff"
     bordercolor="#666666"
     borderopacity="1"
     objecttolerance="10"
     gridtolerance="10"
     guidetolerance="10"
     inkscape:pageopacity="0"
     inkscape:pageshadow="2"
     inkscape:window-width="640"
     inkscape:window-height="480"
     id="namedview4" /><g
     id="g10"
     inkscape:groupmode="layer"
     inkscape:label="ink_ext_XXXXXX"
     transform="matrix(1.3333333,0,0,-1.3333333,0,58.666667)"><g
       id="g12"
       transform="scale(0.1)"><g
         id="g14"><g
           id="g16"
           clip-path="url(#clipPath20)"><g
             id="g22"
             clip-path="url(#clipPath26)"><g
               id="g28"
               clip-path="url(#clipPath32)"><path
                 d="m -75.7422,-66.6563 h 705 v 572.281 h -705 z"
                 style="fill:#ffffff;fill-opacity:1;fill-rule:nonzero;stroke:none"
                 id="path34" /></g></g></g></g></g></g></svg>
