<?xml version="1.0" encoding="UTF-8"?>
<svg width="32px" height="31px" viewBox="0 0 32 31" version="1.1" xmlns="http://www.w3.org/2000/svg" xmlns:xlink="http://www.w3.org/1999/xlink">
    <!-- Generator: sketchtool 55.2 (78181) - https://sketchapp.com -->
    <title>A7422C0A-88AF-4422-8F16-FCC2FC883C76@1.5x</title>
    <desc>Created with sketchtool.</desc>
    <g id="Asset-Artboard-Page" stroke="none" stroke-width="1" fill="none" fill-rule="evenodd">
        <g id="facebook-copy-7" transform="translate(0.462810, 0.000000)" fill="#FFFFFF" fill-rule="nonzero">
            <path d="M15.4988738,26.2768658 C15.4962722,26.2768658 15.493434,26.2768658 15.4905959,26.2768658 C14.5551941,26.27048 6.28581686,26.1950329 3.94293704,25.5614194 C2.30557005,25.1212722 1.01303641,23.8301576 0.571706499,22.1925542 C-0.0413305062,19.891064 -0.0023061447,15.4600271 0.00195105672,15.1062063 C-0.00206963048,14.7540412 -0.0415670023,10.286345 0.569814409,7.96593383 C0.570523958,7.96380525 0.570997011,7.96144017 0.571706499,7.95931152 C1.00806969,6.34039252 2.32969416,5.00930761 3.93891636,4.56797772 C3.94293704,4.56679518 3.94719421,4.56584914 3.95121488,4.5646666 C6.26760551,3.95588685 14.553302,3.88138582 15.4905959,3.875 L15.5073882,3.875 C16.445155,3.88138582 24.7365278,3.95683284 27.0578852,4.59139234 C28.6909949,5.03035709 29.9825825,6.31981603 30.425095,7.95529085 C31.0610736,10.2773576 31.0021823,14.7547507 30.9957965,15.1326956 C31,15.5049641 31.0374225,19.8962672 30.4279331,22.2093465 C30.4274601,22.2117116 30.4267506,22.2138403 30.4262776,22.2159688 C29.9847112,23.8535722 28.692414,25.1446868 27.053155,25.5853071 C27.0510264,25.5860166 27.0486612,25.5864897 27.0465326,25.5871991 C24.7303786,26.1957425 16.4444455,26.2702434 15.5073882,26.2768658 C15.5045501,26.2768658 15.5017119,26.2768658 15.4988738,26.2768658 Z M2.91080226,8.58701247 C2.3725028,10.6351994 2.42335272,15.0458967 2.42382571,15.0903608 L2.42382571,15.1222899 C2.40774295,16.3455258 2.46426914,19.8879905 2.91103875,21.5658009 C3.127683,22.3692294 3.76508065,23.0056811 4.57347585,23.2230349 C6.30213613,23.6906175 13.0372651,23.8377274 15.4988735,23.8549928 C17.9668677,23.8377274 24.7119301,23.6946382 26.4278188,23.24574 C27.2336124,23.0276766 27.8688814,22.3933535 28.0869447,21.588979 C28.5341874,19.8865714 28.5902405,16.361372 28.5739213,15.145941 C28.5739213,15.1331693 28.5739213,15.1203978 28.5741578,15.1076261 C28.5963898,13.8697266 28.5526352,10.2858724 28.0890733,8.59458083 C28.0886003,8.59292524 28.0881273,8.59126964 28.0878908,8.58961411 C27.8703005,7.78263785 27.2326663,7.14618626 26.4242711,6.92883246 C24.7124032,6.46077678 17.9663947,6.31413984 15.4988735,6.29687454 C13.0325349,6.31413984 6.29409472,6.4569926 4.57300286,6.90541783 C3.77998087,7.12537328 3.12815599,7.78452994 2.91080226,8.58701247 L2.91080226,8.58701247 Z M12.412166,19.9799926 L12.412166,10.1716373 L20.8887273,15.0759332 L12.412166,19.9799926 Z" id="Shape"></path>
        </g>
    </g>
</svg>