<svg width="24" height="24" viewBox="0 0 24 24" fill="none" xmlns="http://www.w3.org/2000/svg">
<path fill-rule="evenodd" clip-rule="evenodd" d="M11.3143 3.20969C10.9369 3.52274 10.8932 4.07258 11.2167 4.4378L17.9146 12L11.2167 19.5622C10.8932 19.9274 10.9369 20.4773 11.3143 20.7904C11.6917 21.1033 12.2599 21.0611 12.5833 20.6958L19.7833 12.5668C20.0722 12.2406 20.0722 11.7594 19.7833 11.4332L12.5833 3.30417C12.2599 2.93895 11.6917 2.89665 11.3143 3.20969Z" fill="currentColor"/>
<path d="M6 3.871C6 3.50652 6.23452 3.1806 6.58775 3.05415C6.94098 2.92768 7.33823 3.02746 7.58333 3.30419L14.7833 11.4332C15.0722 11.7593 15.0722 12.2407 14.7833 12.5668L7.58333 20.6957C7.33823 20.9725 6.94098 21.0723 6.58775 20.9459C6.23452 20.8194 6 20.4934 6 20.1289V3.871Z" fill="currentColor"/>
</svg>
