<svg width="24" height="24" viewBox="0 0 24 24" fill="none" xmlns="http://www.w3.org/2000/svg">
<path d="M7 11.9999C7.00129 11.7447 7.05939 11.4929 7.17009 11.2628C7.28078 11.0328 7.4413 10.8302 7.64 10.6699L12.74 6.45995C13.047 6.21394 13.417 6.05913 13.8077 6.01316C14.1985 5.9672 14.5943 6.03191 14.95 6.19995C15.2592 6.33623 15.5226 6.55862 15.7088 6.84057C15.895 7.12251 15.9961 7.45209 16 7.78995L16 16.2099C15.9961 16.5478 15.895 16.8774 15.7088 17.1593C15.5226 17.4413 15.2592 17.6637 14.95 17.7999C14.5943 17.968 14.1985 18.0327 13.8077 17.9867C13.417 17.9408 13.047 17.786 12.74 17.5399L7.64 13.3299C7.4413 13.1696 7.28078 12.9671 7.17009 12.7371C7.05939 12.507 7.00129 12.2552 7 11.9999Z" fill="currentColor"/>
</svg>
