<svg width="24" height="24" viewBox="0 0 24 24" fill="none" xmlns="http://www.w3.org/2000/svg">
<g clip-path="url(#clip0_161_33564)">
<path d="M7 12C7.00129 11.7447 7.05939 11.4929 7.17009 11.2629C7.28078 11.0328 7.4413 10.8303 7.64 10.67L12.74 6.46001C13.047 6.214 13.417 6.05919 13.8077 6.01323C14.1985 5.96726 14.5943 6.03198 14.95 6.20001C15.2592 6.33629 15.5226 6.55868 15.7088 6.84063C15.895 7.12257 15.9961 7.45215 16 7.79001L16 16.21C15.9961 16.5479 15.895 16.8774 15.7088 17.1594C15.5226 17.4413 15.2592 17.6637 14.95 17.8C14.5943 17.968 14.1985 18.0328 13.8077 17.9868C13.417 17.9408 13.047 17.786 12.74 17.54L7.64 13.33C7.4413 13.1697 7.28078 12.9672 7.17009 12.7371C7.05939 12.5071 7.00129 12.2553 7 12Z" fill="currentColor"/>
</g>
<defs>
<clipPath id="clip0_161_33564">
<rect width="24" height="24" fill="white"/>
</clipPath>
</defs>
</svg>
