<svg width="24" height="24" viewBox="0 0 24 24" fill="none" xmlns="http://www.w3.org/2000/svg">
<path d="M15.9566 5.96845L10.0935 13.0006L8.041 10.5398C7.8491 10.3095 7.61372 10.1193 7.3483 9.97994C7.08288 9.84062 6.79261 9.75495 6.49408 9.72781C6.19555 9.70067 5.8946 9.73259 5.6084 9.82176C5.32221 9.91093 5.05638 10.0556 4.8261 10.2475C4.59581 10.4394 4.40558 10.6748 4.26627 10.9402C4.12695 11.2056 4.04128 11.4959 4.01414 11.7944C3.987 12.093 4.01892 12.3939 4.10809 12.6801C4.19726 12.9663 4.34193 13.2321 4.53383 13.4624L8.33994 18.0315C8.55386 18.2889 8.82181 18.4961 9.12477 18.6384C9.42773 18.7807 9.75829 18.8545 10.093 18.8548C10.4277 18.855 10.7584 18.7815 11.0615 18.6396C11.3647 18.4978 11.6329 18.2909 11.8471 18.0338L19.4638 8.89554C19.6574 8.66543 19.8036 8.39936 19.8941 8.1126C19.9846 7.82583 20.0176 7.52402 19.9912 7.22447C19.9648 6.92493 19.8795 6.63354 19.7402 6.36704C19.6009 6.10054 19.4104 5.86417 19.1795 5.67149C18.9486 5.47881 18.682 5.33361 18.3949 5.24423C18.1078 5.15484 17.8058 5.12304 17.5064 5.15063C17.207 5.17822 16.9159 5.26466 16.65 5.405C16.384 5.54535 16.1484 5.73682 15.9566 5.96845Z" fill="currentColor"/>
</svg>
