<svg width="24" height="24" viewBox="0 0 24 24" fill="none" xmlns="http://www.w3.org/2000/svg">
<path d="M16 5V6H14.4V5H9.6V6H8V5C8 4.46957 8.16857 3.96086 8.46863 3.58579C8.76869 3.21071 9.17565 3 9.6 3H14.4C14.8243 3 15.2313 3.21071 15.5314 3.58579C15.8314 3.96086 16 4.46957 16 5Z" fill="currentColor"/>
<path d="M19.1111 7H4.88889C4.65314 7 4.42705 7.09219 4.26035 7.25628C4.09365 7.42038 4 7.64294 4 7.875C4 8.10706 4.09365 8.32962 4.26035 8.49372C4.42705 8.65781 4.65314 8.75 4.88889 8.75H5.84L6.61333 19.3725C6.64488 19.8151 6.84602 20.2293 7.17606 20.5315C7.5061 20.8336 7.9404 21.0011 8.39111 21H15.6267C16.0774 21.0011 16.5117 20.8336 16.8417 20.5315C17.1718 20.2293 17.3729 19.8151 17.4044 19.3725L18.16 8.75H19.1111C19.3469 8.75 19.573 8.65781 19.7397 8.49372C19.9064 8.32962 20 8.10706 20 7.875C20 7.64294 19.9064 7.42038 19.7397 7.25628C19.573 7.09219 19.3469 7 19.1111 7ZM12.8889 16.625C12.8889 16.8571 12.7952 17.0796 12.6285 17.2437C12.4618 17.4078 12.2357 17.5 12 17.5C11.7643 17.5 11.5382 17.4078 11.3715 17.2437C11.2048 17.0796 11.1111 16.8571 11.1111 16.625V11.375C11.1111 11.1429 11.2048 10.9204 11.3715 10.7563C11.5382 10.5922 11.7643 10.5 12 10.5C12.2357 10.5 12.4618 10.5922 12.6285 10.7563C12.7952 10.9204 12.8889 11.1429 12.8889 11.375V16.625Z" fill="currentColor"/>
</svg>
