<svg width="24" height="24" viewBox="0 0 24 24" fill="none" xmlns="http://www.w3.org/2000/svg">
<path fill-rule="evenodd" clip-rule="evenodd" d="M12.6308 6.0728L7.07399 12L12.6308 17.9272C13.2897 18.6301 13.2897 19.7699 12.6308 20.4729C11.9718 21.1757 10.9033 21.1757 10.2443 20.4729L3.49426 13.2729C2.83525 12.5699 2.83525 11.4301 3.49426 10.7272L10.2443 3.52721C10.9033 2.82426 11.9718 2.82426 12.6308 3.52721C13.2897 4.23016 13.2897 5.36985 12.6308 6.0728ZM14.949 12L20.5058 17.9272C21.1647 18.6301 21.1647 19.7699 20.5058 20.4729C19.8468 21.1757 18.7783 21.1757 18.1192 20.4729L11.3692 13.2729C10.7103 12.5699 10.7103 11.4301 11.3692 10.7272L18.1192 3.52721C18.7783 2.82426 19.8468 2.82426 20.5058 3.52721C21.1647 4.23016 21.1647 5.36985 20.5058 6.0728L14.949 12Z" fill="currentColor"/>
</svg>
