<svg width="24" height="24" viewBox="0 0 24 24" fill="none" xmlns="http://www.w3.org/2000/svg">
<path fill-rule="evenodd" clip-rule="evenodd" d="M16.0641 4C15.0202 4 14.0191 4.41468 13.281 5.1528L8.63904 9.79474C6.50709 11.9267 4.99464 14.598 4.26339 17.523L4.03909 18.4202C3.80646 19.3507 4.64933 20.1935 5.57986 19.9609L6.47704 19.7366C9.40204 19.0054 12.0733 17.4929 14.2052 15.361L18.8472 10.719C19.5853 9.98091 20 8.97979 20 7.93593C20 5.76217 18.2379 4 16.0641 4ZM14.73 9.26995C15.4406 9.9805 16.2644 10.2832 16.8754 10.1768L17.5902 9.46202C17.9949 9.05728 18.2223 8.50833 18.2223 7.93593C18.2223 6.74397 17.256 5.77769 16.0641 5.77769C15.4916 5.77769 14.9428 6.00508 14.538 6.40983L13.8232 7.12464C13.7168 7.73564 14.0195 8.55938 14.73 9.26995Z" fill="currentColor"/>
</svg>
