<svg width="24" height="24" viewBox="0 0 24 24" fill="none" xmlns="http://www.w3.org/2000/svg">
<path d="M21 9V18.1164C21 18.616 20.8104 19.0951 20.4728 19.4483C20.1352 19.8016 19.6774 20 19.2 20H4.8C4.32261 20 3.86477 19.8016 3.52721 19.4483C3.18964 19.0951 3 18.616 3 18.1164V9.34846L4.8 10.375L11.568 14.2363C11.7007 14.3112 11.8492 14.3501 12 14.3493C12.1585 14.3476 12.3137 14.3021 12.45 14.2175L19.2 10.1019L21 9Z" fill="currentColor"/>
<path d="M21 6.78344L19.2 7.83567L12 12L4.8 8.12102L3 7.14013V6.78344C3 6.31044 3.18964 5.85682 3.52721 5.52236C3.86477 5.1879 4.32261 5 4.8 5H19.2C19.6774 5 20.1352 5.1879 20.4728 5.52236C20.8104 5.85682 21 6.31044 21 6.78344Z" fill="currentColor"/>
</svg>
