<svg width="24" height="24" viewBox="0 0 24 24" fill="none" xmlns="http://www.w3.org/2000/svg">
<path d="M20.7234 7.13338C20.1896 5.32116 18.68 3.80958 16.87 3.2751C15.4938 2.87424 14.543 2.90765 13.8841 3.40037C13.0917 3.99331 13 5.06227 13 5.82224V7.9017C13 9.95609 13.9341 11 15.7691 11H18.1628C18.9135 11 19.9894 10.9081 20.5816 10.1148C21.0904 9.46339 21.1321 8.51134 20.7234 7.13338Z" fill="currentColor"/>
<path d="M18.6836 12.9866C18.4424 12.7084 18.0899 12.5507 17.7281 12.5507H14.4073C12.7747 12.5507 11.4482 11.2244 11.4482 9.59206V6.27169C11.4482 5.90997 11.2905 5.55753 11.0122 5.31639C10.7432 5.07524 10.3722 4.96395 10.0197 5.01032C7.83978 5.28856 5.83614 6.48501 4.5282 8.28431C3.21099 10.0929 2.72863 12.3003 3.14606 14.5077C3.74901 17.6982 6.29994 20.2487 9.50021 20.8516C10.0104 20.9536 10.5206 21 11.0308 21C12.7097 21 14.3331 20.4806 15.7152 19.4697C17.5148 18.1619 18.7114 16.1586 18.9897 13.979C19.0361 13.6173 18.9247 13.2556 18.6836 12.9866Z" fill="currentColor"/>
</svg>
