<svg width="24" height="24" viewBox="0 0 24 24" fill="none" xmlns="http://www.w3.org/2000/svg">
<path d="M11.4308 6.48859C11.5733 6.65464 11.7812 6.75019 12 6.75019C12.2188 6.75019 12.4267 6.65464 12.5692 6.48859C14.1579 4.63708 16.6538 4.16532 18.5699 5.75287C20.5433 7.38787 20.7857 10.1569 19.2584 12.1161C18.5635 13.0074 17.1243 14.437 15.6379 15.8355C14.1842 17.2033 12.7304 18.4999 11.9938 19.1504C11.2573 18.4999 9.80348 17.2033 8.34977 15.8355C6.8634 14.437 5.42418 13.0074 4.72928 12.1161C3.20862 10.1655 3.47304 7.40929 5.42553 5.74631L4.95124 5.18944L5.42554 5.74631C7.29583 4.15334 9.83664 4.63074 11.4308 6.48859Z" stroke="currentColor" stroke-width="1.5" stroke-linecap="round" stroke-linejoin="round"/>
</svg>
