<svg width="24" height="24" viewBox="0 0 24 24" fill="none" xmlns="http://www.w3.org/2000/svg">
<path fill-rule="evenodd" clip-rule="evenodd" d="M5.7 5.48754C6.46226 3.96301 8.02045 3 9.72493 3H14.2751C15.9795 3 17.5377 3.96301 18.3 5.48754L20.715 10.3174C20.8385 10.5647 20.9231 10.8286 20.9663 11.1H21V16.5C21 18.9853 18.9853 21 16.5 21H7.5C5.01472 21 3 18.9853 3 16.5V11.1H3.03364C3.07689 10.8286 3.16142 10.5647 3.28505 10.3174L5.7 5.48754ZM19.0938 11.1H17.85C16.1103 11.1 14.7 12.5103 14.7 14.25C14.7 14.9956 14.0956 15.6 13.35 15.6H10.65C9.90441 15.6 9.3 14.9956 9.3 14.25C9.3 12.5103 7.8897 11.1 6.15 11.1H4.90623L7.30996 6.29252C7.76733 5.37781 8.70224 4.8 9.72493 4.8H14.2751C15.2978 4.8 16.2327 5.37781 16.69 6.29252L19.0938 11.1Z" fill="currentColor"/>
</svg>
