<svg width="24" height="24" viewBox="0 0 24 24" fill="none" xmlns="http://www.w3.org/2000/svg">
<path d="M21.6 6.83733V17.0352C21.6 18.1036 20.9253 19.172 19.8651 19.5604L15.0457 21.4058C14.7566 21.5029 14.4675 21.6 14.0819 21.6C13.6 21.6 13.0217 21.4058 12.5398 21.1145C12.347 20.9202 12.0578 20.7259 11.9614 20.5316H8.29878C6.853 20.5316 5.59998 19.3662 5.59998 17.8122V16.841C5.59998 16.4525 5.88914 16.064 6.37106 16.064C6.853 16.064 7.14215 16.3554 7.14215 16.841V17.8122C7.14215 18.4921 7.72046 18.9777 8.29878 18.9777H11.4795V4.992H8.29878C7.62407 4.992 7.14215 5.47762 7.14215 6.15748V7.1287C7.14215 7.51719 6.853 7.90569 6.37106 7.90569C5.88914 7.90569 5.59998 7.51719 5.59998 7.1287V6.15748C5.59998 4.70063 6.75661 3.43803 8.29878 3.43803H11.9614C12.1542 3.24378 12.347 3.04954 12.5398 2.85529C13.3108 2.36967 14.1783 2.27255 15.0457 2.56392L19.8651 4.40926C20.8289 4.70063 21.6 5.76898 21.6 6.83733Z" fill="currentColor"/>
<path d="M5.05265 14.4C4.86318 14.4 4.67371 14.3116 4.57897 14.2231L2.68423 12.4534C2.5895 12.3649 2.5895 12.2765 2.49476 12.2765C2.49476 12.188 2.40002 12.0995 2.40002 12.0111C2.40002 11.9226 2.40002 11.8341 2.49476 11.7457C2.49476 11.6572 2.5895 11.5686 2.68423 11.5686L4.57897 9.79906C4.86318 9.53362 5.33687 9.53362 5.62108 9.79906C5.90529 10.0645 5.90529 10.5069 5.62108 10.7723L4.95792 11.3917H8.84213C9.22108 11.3917 9.60002 11.6571 9.60002 12.0995C9.60002 12.542 9.22108 12.6305 8.84213 12.6305H4.86318L5.52634 13.2497C5.81055 13.5152 5.81055 13.9576 5.52634 14.2231C5.43161 14.3116 5.24213 14.4 5.05265 14.4Z" fill="#596780"/>
</svg>
