<svg width="24" height="24" viewBox="0 0 24 24" fill="none" xmlns="http://www.w3.org/2000/svg">
<path fill-rule="evenodd" clip-rule="evenodd" d="M21 8.6641C21 11.7923 18.4537 14.3282 15.3126 14.3282C14.7395 14.3282 13.4345 14.1965 12.7997 13.6696L12.006 14.46C11.5395 14.9246 11.6655 15.0615 11.873 15.2868C11.9596 15.3809 12.0605 15.4903 12.1383 15.6455C12.1383 15.6455 12.7996 16.5675 12.1383 17.4896C11.7415 18.0164 10.6305 18.7541 9.36079 17.4896L9.09626 17.753C9.09626 17.753 9.88984 18.675 9.22852 19.5971C8.83173 20.124 7.77363 20.6509 6.84778 19.7289L5.92194 20.6509C5.28707 21.2832 4.51115 20.9143 4.20254 20.6509L3.40897 19.8605C2.66829 19.1229 3.10035 18.3238 3.40897 18.0164L10.2867 11.1669C10.2867 11.1669 9.62535 10.113 9.62535 8.6641C9.62535 5.5359 12.1716 3 15.3126 3C18.4537 3 21 5.5359 21 8.6641ZM15.3129 10.64C16.4086 10.64 17.2968 9.75541 17.2968 8.66418C17.2968 7.57295 16.4086 6.68833 15.3129 6.68833C14.2171 6.68833 13.3289 7.57295 13.3289 8.66418C13.3289 9.75541 14.2171 10.64 15.3129 10.64Z" fill="currentColor"/>
</svg>
