<svg width="24" height="24" viewBox="0 0 24 24" fill="none" xmlns="http://www.w3.org/2000/svg">
<path fill-rule="evenodd" clip-rule="evenodd" d="M13.6969 6C13.6969 4.34314 15.108 3 16.8485 3C18.589 3 20 4.34314 20 6C20 7.65685 18.589 9 16.8485 9C15.9696 9 15.1753 8.65736 14.6043 8.10612L10.2416 10.9465C10.2819 11.1383 10.3031 11.3362 10.3031 11.5385C10.3031 11.939 10.2202 12.3218 10.0702 12.6718L14.8539 15.6772C15.3969 15.2545 16.0916 15 16.8485 15C18.589 15 20 16.3431 20 18C20 19.6568 18.589 21 16.8485 21C15.108 21 13.6969 19.6568 13.6969 18C13.6969 17.566 13.7941 17.1529 13.9687 16.78L9.2236 13.7988C8.67008 14.2588 7.94504 14.5385 7.15151 14.5385C5.41098 14.5385 4 13.1953 4 11.5385C4 9.88161 5.41098 8.53846 7.15151 8.53846C8.15238 8.53846 9.04332 8.98252 9.62019 9.67366L13.8484 6.92078C13.75 6.63023 13.6969 6.32064 13.6969 6Z" fill="currentColor"/>
</svg>
