<svg width="24" height="24" viewBox="0 0 24 24" fill="none" xmlns="http://www.w3.org/2000/svg">
<path d="M10 12C10 10.8955 10.8955 10 12 10C13.1045 10 14 10.8955 14 12C14 13.1045 13.1045 14 12 14C10.8955 14 10 13.1045 10 12Z" fill="currentColor"/>
<path fill-rule="evenodd" clip-rule="evenodd" d="M3 12C3 13.4345 3.38246 13.9176 4.1474 14.8837C5.67476 16.8128 8.2363 19 12 19C15.7637 19 18.3252 16.8128 19.8526 14.8837C20.6175 13.9176 21 13.4345 21 12C21 10.5655 20.6175 10.0825 19.8526 9.11629C18.3252 7.18712 15.7637 5 12 5C8.2363 5 5.67476 7.18712 4.1474 9.11629C3.38246 10.0825 3 10.5655 3 12ZM12 8.71875C10.136 8.71875 8.625 10.1878 8.625 12C8.625 13.8122 10.136 15.2812 12 15.2812C13.864 15.2812 15.375 13.8122 15.375 12C15.375 10.1878 13.864 8.71875 12 8.71875Z" fill="currentColor"/>
</svg>
