<svg width="24" height="24" viewBox="0 0 24 24" fill="none" xmlns="http://www.w3.org/2000/svg">
<path d="M4.28571 3C3.57254 3 3 3.57254 3 4.28571V9.42857C3 10.1417 3.57254 10.7143 4.28571 10.7143H9.42857C10.1417 10.7143 10.7143 10.1417 10.7143 9.42857V4.28571C10.7143 3.57254 10.1417 3 9.42857 3H4.28571ZM14.5714 3C13.8583 3 13.2857 3.57254 13.2857 4.28571V9.42857C13.2857 10.1417 13.8583 10.7143 14.5714 10.7143H19.7143C20.4275 10.7143 21 10.1417 21 9.42857V4.28571C21 3.57254 20.4275 3 19.7143 3H14.5714ZM4.28571 13.2857C3.57254 13.2857 3 13.8583 3 14.5714V19.7143C3 20.4275 3.57254 21 4.28571 21H9.42857C10.1417 21 10.7143 20.4275 10.7143 19.7143V14.5714C10.7143 13.8583 10.1417 13.2857 9.42857 13.2857H4.28571ZM14.5714 13.2857C13.8583 13.2857 13.2857 13.8583 13.2857 14.5714V19.7143C13.2857 20.4275 13.8583 21 14.5714 21H19.7143C20.4275 21 21 20.4275 21 19.7143V14.5714C21 13.8583 20.4275 13.2857 19.7143 13.2857H14.5714Z" fill="currentColor"/>
</svg>
