<svg width="24" height="24" viewBox="0 0 24 24" fill="none" xmlns="http://www.w3.org/2000/svg">
<path d="M20.3077 4C20.3077 4 21 4.31465 21 4.70657V6.10316C21 6.48956 20.3077 6.80973 20.3077 6.80973H18.9231C18.9231 6.80973 18.2308 6.48956 18.2308 6.10316V4.70657C18.2308 4.31465 18.9231 4 18.9231 4H20.3077ZM14.7692 4C15.1532 4 15.4615 4.31465 15.4615 4.70657V6.10316C15.4615 6.48956 15.1532 6.80973 14.7692 6.80973H3.69231C3.30829 6.80973 3 6.48956 3 6.10316V4.70657C3 4.31465 3.30829 4 3.69231 4H14.7692ZM20.3077 11.0657C20.3077 11.0657 21 11.3804 21 11.7723V13.1689C21 13.5553 20.3077 13.8755 20.3077 13.8755H18.9231C18.9231 13.8755 18.2308 13.5553 18.2308 13.1689V11.7723C18.2308 11.3804 18.9231 11.0657 18.9231 11.0657H20.3077ZM14.7692 11.0657C14.7692 11.0657 15.4615 11.3804 15.4615 11.7723V13.1689C15.4615 13.5553 15.1532 13.8755 14.7692 13.8755H3.69231C3.30829 13.8755 3 13.5553 3 13.1689V11.7723C3 11.3804 3.69231 11.0657 3.69231 11.0657H14.7692ZM20.3077 18.1314C20.6917 18.1314 21 18.4461 21 18.838V20.2346C21 20.621 20.3077 20.9412 20.3077 20.9412H18.9231C18.9231 20.9412 18.2308 20.621 18.2308 20.2346V18.838C18.2308 18.4461 18.5391 18.1314 18.9231 18.1314H20.3077ZM14.7692 18.1314C15.1532 18.1314 15.4615 18.4461 15.4615 18.838V20.2346C15.4615 20.621 15.1532 20.9412 14.7692 20.9412H3.69231C3.30829 20.9412 3 20.621 3 20.2346V18.838C3 18.4461 3.30829 18.1314 3.69231 18.1314H14.7692Z" fill="currentColor"/>
</svg>
