<svg width="24" height="24" viewBox="0 0 24 24" fill="none" xmlns="http://www.w3.org/2000/svg">
<path d="M18.357 5.97823C18.1552 5.76706 17.9125 5.59895 17.6436 5.48409C17.3748 5.36922 17.0853 5.31 16.7928 5.31C16.5004 5.31 16.2109 5.36922 15.942 5.48409C15.6732 5.59895 15.4305 5.76706 15.2287 5.97823L11.9887 9.20961L8.86044 6.08965C8.44418 5.6828 7.88375 5.45623 7.30094 5.45916C6.71812 5.4621 6.16001 5.69431 5.74789 6.10533C5.33578 6.51635 5.10295 7.07298 5.1 7.65425C5.09706 8.23552 5.32424 8.79446 5.73217 9.20961L8.86044 12.3296L5.73217 15.4495C5.32424 15.8647 5.09706 16.4236 5.1 17.0049C5.10295 17.5862 5.33578 18.1428 5.74789 18.5538C6.16001 18.9648 6.71812 19.197 7.30094 19.2C7.88375 19.2029 8.44418 18.9763 8.86044 18.5695L11.9887 15.4495L15.117 18.5695C15.5332 18.9763 16.0937 19.2029 16.6765 19.2C17.2593 19.197 17.8174 18.9648 18.2295 18.5538C18.6417 18.1428 18.8745 17.5862 18.8774 17.0049C18.8804 16.4236 18.6532 15.8647 18.2453 15.4495L15.117 12.3296L18.2453 9.20961C18.6642 8.7817 18.9079 8.21321 18.9285 7.6155C18.9492 7.01778 18.7454 6.4339 18.357 5.97823Z" fill="currentColor"/>
</svg>
